#tb 0: 1/25
#media_type 0: video
#codec_id 0: rawvideo
#dimensions 0: 1920x1080
#sar 0: 0/1
0,          0,          0,        1,  6220800, 0x0e4514b2
0,          1,          1,        1,  6220800, 0x11386cd2
0,          2,          2,        1,  6220800, 0xb8b5ae1e
0,          3,          3,        1,  6220800, 0xfc1fb5c7
0,          4,          4,        1,  6220800, 0x0e276f8c
0,          5,          5,        1,  6220800, 0x0412fc44
0,          6,          6,        1,  6220800, 0x58f75881
0,          7,          7,        1,  6220800, 0x124b7ca2
0,          8,          8,        1,  6220800, 0x33f50193
0,          9,          9,        1,  6220800, 0x573176bc
0,         10,         10,        1,  6220800, 0xeaeb302d
0,         11,         11,        1,  6220800, 0x23f3bdf9
0,         12,         12,        1,  6220800, 0x28ba2ef7
0,         13,         13,        1,  6220800, 0x1d39e52e
0,         14,         14,        1,  6220800, 0x5e176029
0,         15,         15,        1,  6220800, 0x0e4514b2
0,         16,         16,        1,  6220800, 0x6b0dac67
0,         17,         17,        1,  6220800, 0x189528f5
0,         18,         18,        1,  6220800, 0x1c306284
0,         19,         19,        1,  6220800, 0x6b5b2097
0,         20,         20,        1,  6220800, 0xcbd2a219
0,         21,         21,        1,  6220800, 0x9efa3304
0,         22,         22,        1,  6220800, 0xf13256f4
0,         23,         23,        1,  6220800, 0xa72a568b
0,         24,         24,        1,  6220800, 0x5b644776
